<svg width="833px" height="145px" viewBox="0 0 833 145" version="1.1" xmlns="http://www.w3.org/2000/svg" xmlns:xlink="http://www.w3.org/1999/xlink">
    <!-- Generator: Sketch 42 (36781) - http://www.bohemiancoding.com/sketch -->
    <desc>Created with Sketch.</desc>
    <defs></defs>
    <path d="M10.156,105.032 C10.067,104.846 9.913,104.789 9.913,104.789 L1.516,107.196 C1.516,107.196 1.292,107.309 1.385,107.522 C1.525,108.565 2.361,114.516 3.75,119.44 L3.984,119.643 C8.221,119.651 10.892,106.574 10.156,105.032" id="Fill-4" stroke="none" fill="#000000" fill-rule="evenodd"></path>
    <path d="M186.947,87.537 L196.067,49.686 L195.909,49.686 C193.956,54.077 191.151,58.471 189.117,62.866 L177.551,87.537 L168.438,87.537 L170.274,49.686 L170.114,49.686 C168.779,54.155 167.625,58.55 166.128,63.021 L157.88,87.537 L140.392,87.537 L164.34,27.33 L184.623,27.33 L180.255,59.348 L180.416,59.348 C181.948,55.596 183.38,51.923 185.154,48.171 L194.925,27.33 L214.968,27.33 L203.877,87.537 L186.947,87.537" id="Fill-5" stroke="none" fill="#000000" fill-rule="evenodd"></path>
    <path d="M226.983,66.455 C225.77,70.768 224.666,76.678 228.422,76.678 C232.174,76.678 234.393,70.768 235.606,66.455 C236.816,62.145 237.92,56.235 234.166,56.235 C230.413,56.235 228.193,62.145 226.983,66.455 Z M250.938,66.455 C247.618,78.272 238.619,88.414 225.124,88.414 C211.628,88.414 208.328,78.272 211.65,66.455 C214.971,54.637 223.972,44.499 237.467,44.499 C250.963,44.499 254.259,54.637 250.938,66.455 L250.938,66.455 Z" id="Fill-6" stroke="none" fill="#000000" fill-rule="evenodd"></path>
    <polyline id="Fill-7" stroke="none" fill="#000000" fill-rule="evenodd" points="251.055 87.537 259.379 57.911 254.906 57.911 258.432 45.376 262.904 45.376 266.383 32.995 282.034 32.995 278.555 45.376 304.815 45.376 284.297 57.911 275.03 57.911 266.707 87.537 251.055 87.537"></polyline>
    <path d="M294.771,66.455 C293.559,70.768 292.455,76.678 296.211,76.678 C299.963,76.678 302.182,70.768 303.396,66.455 C304.606,62.145 305.709,56.235 301.955,56.235 C298.201,56.235 295.982,62.145 294.771,66.455 Z M318.729,66.455 C315.406,78.272 306.408,88.414 292.914,88.414 C279.418,88.414 276.117,78.272 279.439,66.455 C282.76,54.637 292.83,45.376 306.326,45.376 C319.821,45.376 322.048,54.637 318.729,66.455 L318.729,66.455 Z" id="Fill-8" stroke="none" fill="#000000" fill-rule="evenodd"></path>
    <path d="M448.04,66.139 C449.208,61.984 449.899,57.512 447.026,57.512 C443.751,57.512 441.813,61.585 440.517,66.217 C439.298,70.53 438.763,74.996 441.792,74.996 C445.231,74.996 446.782,70.608 448.04,66.139 Z M443.099,82.028 L442.981,81.867 C439.823,85.701 436.435,88.414 431.562,88.414 C420.54,88.414 421.827,75.319 424.204,66.856 C426.642,58.149 432.565,44.499 443.907,44.499 C448.78,44.499 451.118,47.208 451.771,51.446 L451.976,51.28 C452.435,49.37 452.813,47.451 453.349,45.531 L459.429,23.889 L475.089,23.889 L457.198,87.537 L441.228,87.537 L443.099,82.028 L443.099,82.028 Z" id="Fill-9" stroke="none" fill="#000000" fill-rule="evenodd"></path>
    <path d="M593.63,45.376 L587.257,68.049 C585.845,73.082 585.53,75.319 588.251,75.319 C591.048,75.319 591.962,73.16 593.405,68.049 L599.778,45.376 L615.427,45.376 L608.46,70.207 C604.952,82.664 596.065,88.414 584.567,88.414 C572.427,88.414 567.769,81.711 571.003,70.207 L577.97,45.376 L593.63,45.376" id="Fill-10" stroke="none" fill="#000000" fill-rule="evenodd"></path>
    <path d="M633.454,53.2 L633.56,53.361 C636.356,48.805 641.647,44.499 646.841,44.499 C655.864,44.499 655.942,52.162 653.808,59.747 L645.995,87.537 L630.345,87.537 L636.339,66.217 C637.351,62.622 637.819,60.069 635.187,60.069 C632.157,60.069 631.106,62.944 629.896,67.254 L624.196,87.537 L608.548,87.537 L620.386,45.376 L636.046,45.376 L633.454,53.2" id="Fill-11" stroke="none" fill="#000000" fill-rule="evenodd"></path>
    <path d="M678.772,66.139 C679.94,61.984 680.644,57.512 677.769,57.512 C674.493,57.512 672.556,61.585 671.241,66.217 C670.032,70.53 669.497,74.996 672.536,74.996 C675.966,74.996 677.517,70.608 678.772,66.139 Z M673.831,82.028 L673.716,81.867 C670.569,85.701 667.169,88.414 662.296,88.414 C651.274,88.414 652.562,75.319 654.938,66.856 C657.384,58.149 663.3,44.499 674.632,44.499 C679.505,44.499 681.86,47.208 682.503,51.446 L682.708,51.28 C683.177,49.37 683.546,47.451 684.083,45.531 L690.173,23.889 L705.823,23.889 L687.94,87.537 L671.962,87.537 L673.831,82.028 L673.831,82.028 Z" id="Fill-12" stroke="none" fill="#000000" fill-rule="evenodd"></path>
    <path d="M722.427,61.268 C723.001,58.95 722.981,55.919 720.185,55.919 C717.554,55.919 715.685,59.109 715.165,61.268 L722.427,61.268 Z M734.235,73.242 C729.735,82.987 720.788,88.414 711.366,88.414 C698.349,88.414 694.353,79.635 697.831,67.254 C701.224,55.197 711.181,44.499 724.112,44.499 C730.581,44.499 734.528,47.208 736.39,51.363 C738.923,56.874 737.646,63.1 735.784,69.731 L712.788,69.731 C712.087,72.205 711.366,76.196 714.64,76.196 C716.394,76.196 718.108,74.918 718.897,73.242 L734.235,73.242 L734.235,73.242 Z" id="Fill-13" stroke="none" fill="#000000" fill-rule="evenodd"></path>
    <path d="M733.802,82.305 C734.649,79.26 737.933,76.668 740.876,76.668 C744.112,76.668 746.118,79.11 745.173,82.451 C744.296,85.594 740.993,88.082 737.856,88.082 C734.669,88.082 732.905,85.491 733.802,82.305" id="Fill-14" stroke="none" fill="#000000" fill-rule="evenodd"></path>
    <path d="M760.296,87.889 C759.38,87.936 758.493,88.082 757.597,88.082 C750.017,88.082 747.685,81.301 749.665,74.276 C751.702,67.047 758.339,60.665 765.919,60.665 C766.62,60.665 767.243,60.712 767.937,60.762 L765.528,69.285 C762.595,69.438 760.579,71.283 759.798,74.073 C759.204,76.166 759.663,78.963 762.157,78.963 L762.81,78.963 L760.296,87.889" id="Fill-15" stroke="none" fill="#000000" fill-rule="evenodd"></path>
    <path d="M776.08,74.373 C775.32,77.067 774.64,80.756 776.99,80.756 C779.33,80.756 780.71,77.067 781.47,74.373 C782.23,71.684 782.91,67.991 780.57,67.991 C778.23,67.991 776.84,71.684 776.08,74.373 Z M791.04,74.373 C788.96,81.754 783.34,88.082 774.91,88.082 C766.483,88.082 764.437,81.754 766.513,74.373 C768.587,66.996 774.21,60.665 782.64,60.665 C791.07,60.665 793.12,66.996 791.04,74.373 L791.04,74.373 Z" id="Fill-16" stroke="none" fill="#000000" fill-rule="evenodd"></path>
    <path d="M805.6,65.496 L805.68,65.598 C807.5,62.856 810.41,60.665 813.55,60.665 C817.09,60.665 818.68,62.954 818.9,66.096 L818.99,66.096 C820.67,63.159 823.52,60.665 826.92,60.665 C832.05,60.665 832.92,64.303 831.29,70.086 L826.37,87.537 L816.6,87.537 L820.62,73.278 C820.91,72.229 821.34,70.135 819.9,70.135 C818.65,70.135 818.05,70.885 817.51,71.879 C817,72.828 816.73,73.973 816.49,74.823 L812.91,87.537 L803.14,87.537 L807.24,72.979 C807.58,71.782 807.75,70.285 806.5,70.285 C805.3,70.285 804.52,71.08 804,72.082 C803.46,73.078 803.2,74.227 802.98,75.022 L799.45,87.537 L789.67,87.537 L797.09,61.21 L806.96,61.21 L805.6,65.496" id="Fill-17" stroke="none" fill="#000000" fill-rule="evenodd"></path>
    <path d="M467.181,87.104 L475.501,57.477 L470.952,57.477 L474.478,44.942 L479.03,44.942 L480.403,40.069 C483.522,28.971 489.864,22.579 498.976,22.579 C501.528,22.579 503.974,22.979 506.243,23.7 L502.181,38.149 C501.431,37.434 500.595,36.718 499.396,36.718 C497.077,36.718 496.345,39.032 495.253,42.944 L494.679,44.942 L505.421,44.966 L501.894,57.502 L491.161,57.477 L482.839,87.104 L467.181,87.104" id="Fill-18" stroke="none" fill="#000000" fill-rule="evenodd"></path>
    <path d="M526.001,59.684 C528.899,53.273 533.737,47.889 539.974,45.053 C536.126,43.933 532.081,44.065 532.081,44.065 C530.438,43.996 522.796,44.288 519.345,49.409 L519.233,49.249 L520.972,44.942 L505.245,44.942 L493.392,87.104 L509.04,87.104 L513.849,70.014 C514.239,68.623 514.755,67.123 515.438,65.705 C516.851,62.139 520.478,59.499 524.44,59.499 C524.987,59.499 525.493,59.587 526.001,59.684" id="Fill-19" stroke="none" fill="#000000" fill-rule="evenodd"></path>
    <path d="M553.317,60.825 C553.894,58.506 553.864,55.475 551.067,55.475 C548.437,55.475 546.575,58.667 546.058,60.825 L553.317,60.825 Z M565.128,72.799 C560.626,82.543 551.681,87.971 542.259,87.971 C529.241,87.971 525.235,79.192 528.714,66.813 C532.104,54.755 542.063,44.054 554.993,44.054 C561.464,44.054 565.421,46.763 567.271,50.921 C569.806,56.43 568.538,62.657 566.667,69.285 L543.673,69.285 C542.979,71.762 542.259,75.752 545.534,75.752 C547.286,75.752 549.001,74.477 549.79,72.799 L565.128,72.799 L565.128,72.799 Z" id="Fill-20" stroke="none" fill="#000000" fill-rule="evenodd"></path>
    <path d="M377.725,61.001 C378.323,59.679 379.051,58.442 379.809,57.22 C381.959,52.723 384.985,48.299 388.979,45.764 C386.159,45.307 383.805,45.381 383.805,45.381 C382.165,45.311 374.52,45.604 371.07,50.725 L370.958,50.564 L372.697,46.257 L356.971,46.257 L345.117,88.418 L360.766,88.418 L365.574,71.328 C365.964,69.94 366.48,68.44 367.163,67.022 C368.576,63.455 372.2,60.815 376.167,60.815 C376.711,60.815 377.219,60.903 377.725,61.001" id="Fill-21" stroke="none" fill="#000000" fill-rule="evenodd"></path>
    <path d="M402.768,71.645 C403.86,69.491 404.532,67.094 404.862,65.897 C405.174,64.776 405.838,62.701 405.973,60.786 C406.09,58.95 405.739,57.35 403.907,57.35 C401.989,57.35 400.577,59.27 399.446,61.585 C398.422,63.821 397.68,66.455 397.301,67.817 C396.959,69.014 396.502,70.93 396.424,72.606 C396.375,74.203 396.815,75.479 398.334,75.479 C400.333,75.479 401.784,73.721 402.768,71.645 Z M414.43,87.537 L398.782,87.537 L401.452,80.59 L401.344,80.428 C398.081,84.903 393.422,88.414 388.313,88.414 C377.458,88.414 379.348,74.282 381.663,66.057 C384,57.751 390.198,44.499 400.985,44.499 C406.012,44.499 408.176,47.85 409.004,52.001 L409.209,51.845 L410.387,45.376 L426.28,45.376 L414.43,87.537 L414.43,87.537 Z" id="Fill-22" stroke="none" fill="#000000" fill-rule="evenodd"></path>
    <path d="M349.664,60.966 L349.723,60.878 L354.064,45.444 C351.16,45.872 345.148,47.617 342.283,51.875 L342.167,51.718 L344.326,46.184 L328.598,46.184 L316.744,88.346 L332.394,88.346 L337.203,71.254 C337.592,69.862 338.108,68.371 338.791,66.948 C340.203,63.382 343.828,60.741 347.794,60.741 C348.447,60.741 349.071,60.829 349.664,60.966" id="Fill-23" stroke="none" fill="#000000" fill-rule="evenodd"></path>
    <path d="M136.483,59.755 C124.273,72.055 72.539,105.262 65.935,109.545 C65.448,109.86 65.831,109.85 66.147,109.762 C93.897,101.959 97.249,94.399 123.382,88.067 C123.783,87.971 124.873,87.217 125.333,86.252 C127.051,82.629 135.63,69.014 136.885,60.034 C136.929,59.726 136.698,59.54 136.483,59.755" id="Fill-24" stroke="none" fill="#000000" fill-rule="evenodd"></path>
    <path d="M119.149,99.498 C103.363,111.489 87.338,112.903 73.751,116.76 C54.914,122.106 20.393,139.346 17.442,141.469 C17.288,141.582 17.339,141.756 17.406,141.813 C18.129,142.428 20.358,144.201 21.005,144.713 C21.116,144.801 21.303,144.785 21.363,144.752 C58.938,123.852 93.517,123.805 106.403,113.77 C111.685,110.129 118.072,101.448 119.297,99.592 C119.394,99.449 119.255,99.416 119.149,99.498" id="Fill-25" stroke="none" fill="#000000" fill-rule="evenodd"></path>
    <path d="M4.066,103.287 C3.767,72.86 10.479,60.912 15.683,48.896 C15.771,48.69 15.187,48.11 15.187,48.11 L10.272,47.022 C10.272,47.022 9.778,47.2 9.715,47.332 C3.855,59.814 -1.335,82.926 0.998,104.147 L1.161,104.338 C1.644,104.203 3.268,103.754 3.859,103.582 C3.971,103.551 4.067,103.364 4.066,103.287" id="Fill-26" stroke="none" fill="#000000" fill-rule="evenodd"></path>
    <path d="M140.492,25.911 C139.221,24.773 137.908,23.684 136.571,22.638 C134.401,23.408 132.246,24.265 130.142,25.415 C123.136,29.247 117.065,28.212 112.418,26.839 C111.944,26.699 112.402,26.426 112.402,26.426 C119.634,26.052 125.107,23.583 131.575,20.17 C131.902,19.997 132.23,19.84 132.556,19.688 C129.528,17.589 126.419,15.693 123.336,14.004 C117.179,14.622 111.595,19.749 105.275,22.167 C99.738,24.286 86.113,20.407 85.799,20.278 C85.336,20.091 85.776,19.774 85.776,19.774 C92.957,19.428 100.949,20.968 107.8,16.772 C109.99,15.43 114.283,12.251 117.7,11.106 C104.467,4.724 93.109,2.05 93.109,2.05 C38.316,-9.613 16.376,34.886 11.761,43.585 C11.66,43.774 11.708,44.169 12.155,44.284 C14.933,44.99 26.247,47.553 44.446,47.614 C65.561,47.68 77.039,44.702 80.423,44.297 C85.43,43.7 92.099,43.501 94.597,53.742 C97.712,66.506 83.839,75.983 78.719,79.698 C62.048,90.926 17.913,102.768 14.337,103.717 C13.909,103.785 13.877,104.092 13.857,104.233 C13.638,105.891 13.474,120.239 5.011,122.125 C4.907,122.149 4.863,122.231 4.891,122.35 C5.155,123.514 6.863,130.123 13.023,137.157 C13.09,137.233 13.33,137.311 13.533,137.17 C20.146,132.578 130.822,55.71 139.295,48.401 C146.642,42.066 146.871,31.616 140.492,25.911" id="Fill-27" stroke="none" fill="#000000" fill-rule="evenodd"></path>
</svg>
