<svg width="146px" height="145px" viewBox="226 181 146 145" version="1.1" xmlns="http://www.w3.org/2000/svg" xmlns:xlink="http://www.w3.org/1999/xlink">
    <!-- Generator: Sketch 42 (36781) - http://www.bohemiancoding.com/sketch -->
    <desc>Created with Sketch.</desc>
    <defs></defs>
    <g id="MF_CMYK" stroke="none" stroke-width="1" fill="none" fill-rule="evenodd" transform="translate(226.000000, 181.000000)">
        <path d="M10.156,105.032 C10.067,104.846 9.913,104.789 9.913,104.789 L1.516,107.196 C1.516,107.196 1.292,107.309 1.385,107.522 C1.525,108.565 2.361,114.516 3.75,119.44 L3.984,119.643 C8.221,119.651 10.892,106.574 10.156,105.032" id="Fill-4" fill="#F44336"></path>
        <path d="M136.483,59.755 C124.273,72.055 72.539,105.262 65.935,109.545 C65.448,109.86 65.831,109.85 66.147,109.762 C93.897,101.959 97.249,94.399 123.382,88.067 C123.783,87.971 124.873,87.217 125.333,86.252 C127.051,82.629 135.63,69.014 136.885,60.034 C136.929,59.726 136.698,59.54 136.483,59.755" id="Fill-24" fill="#F44336"></path>
        <path d="M119.149,99.498 C103.363,111.489 87.338,112.903 73.751,116.76 C54.914,122.106 20.393,139.346 17.442,141.469 C17.288,141.582 17.339,141.756 17.406,141.813 C18.129,142.428 20.358,144.201 21.005,144.713 C21.116,144.801 21.303,144.785 21.363,144.752 C58.938,123.852 93.517,123.805 106.403,113.77 C111.685,110.129 118.072,101.448 119.297,99.592 C119.394,99.449 119.255,99.416 119.149,99.498" id="Fill-25" fill="#F44336"></path>
        <path d="M4.066,103.287 C3.767,72.86 10.479,60.912 15.683,48.896 C15.771,48.69 15.187,48.11 15.187,48.11 L10.272,47.022 C10.272,47.022 9.778,47.2 9.715,47.332 C3.855,59.814 -1.335,82.926 0.998,104.147 L1.161,104.338 C1.644,104.203 3.268,103.754 3.859,103.582 C3.971,103.551 4.067,103.364 4.066,103.287" id="Fill-26" fill="#F44336"></path>
        <path d="M140.492,25.911 C139.221,24.773 137.908,23.684 136.571,22.638 C134.401,23.408 132.246,24.265 130.142,25.415 C123.136,29.247 117.065,28.212 112.418,26.839 C111.944,26.699 112.402,26.426 112.402,26.426 C119.634,26.052 125.107,23.583 131.575,20.17 C131.902,19.997 132.23,19.84 132.556,19.688 C129.528,17.589 126.419,15.693 123.336,14.004 C117.179,14.622 111.595,19.749 105.275,22.167 C99.738,24.286 86.113,20.407 85.799,20.278 C85.336,20.091 85.776,19.774 85.776,19.774 C92.957,19.428 100.949,20.968 107.8,16.772 C109.99,15.43 114.283,12.251 117.7,11.106 C104.467,4.724 93.109,2.05 93.109,2.05 C38.316,-9.613 16.376,34.886 11.761,43.585 C11.66,43.774 11.708,44.169 12.155,44.284 C14.933,44.99 26.247,47.553 44.446,47.614 C65.561,47.68 77.039,44.702 80.423,44.297 C85.43,43.7 92.099,43.501 94.597,53.742 C97.712,66.506 83.839,75.983 78.719,79.698 C62.048,90.926 17.913,102.768 14.337,103.717 C13.909,103.785 13.877,104.092 13.857,104.233 C13.638,105.891 13.474,120.239 5.011,122.125 C4.907,122.149 4.863,122.231 4.891,122.35 C5.155,123.514 6.863,130.123 13.023,137.157 C13.09,137.233 13.33,137.311 13.533,137.17 C20.146,132.578 130.822,55.71 139.295,48.401 C146.642,42.066 146.871,31.616 140.492,25.911" id="Fill-27" fill="#F44336"></path>
    </g>
</svg>
